<svg xmlns="http://www.w3.org/2000/svg" viewBox="2391.991 50.3 240.001 70.766"><defs><style>.a,.d{fill:#008cba;}.b{fill:#c0e276;}.c,.d{fill-rule:evenodd;}</style></defs><g transform="translate(2391.991 50.3)"><path class="a" d="M2098.436,889.8a17.14,17.14,0,0,1,15.453-8.858c6.791,0,12.2,3.1,14.689,7.05l10.163-5.832h0A21.871,21.871,0,0,0,2118.969,870c-12.045,0-20.853,7.837-22.969,18.393Z" transform="translate(-2070.41 -859.297)"/><path d="M1248.115,757.644c-11.318,0-20.25-5.807-24.692-14.382l-3.149,1.821L1214,748.7c4.86,10.863,15.871,18.393,29.773,18.393,16.83,0,29.625-11.159,29.625-29.539v-.16C1271.946,748.7,1262.571,757.644,1248.115,757.644Zm-26.881-34.313A26.3,26.3,0,0,1,1237.584,705a31.156,31.156,0,0,0-22.034,15.046l4.725,2.731Z" transform="translate(-1199.261 -696.327)"/><path class="a" d="M3594.116,3241.667c.9.086,1.808.135,2.743.135,12.82,0,20.583-7.923,21.42-17.8H3592v8.427h16.068C3606.05,3237.841,3601.3,3241.273,3594.116,3241.667Z" transform="translate(-3548.006 -3184.336)"/><path class="b" d="M814.994,1960.169l-7.542-4.355c-1.452-.837-3.826-2.214-5.278-3.051l-7.542-4.355c-1.452-.836-2.633-.147-2.633,1.526v2.461l.627.369c1.452.837,3.826,2.214,5.278,3.051l7.542,4.355c1.452.837,1.452,2.2,0,3.039l-7.542,4.355c-1.452.837-3.826,2.2-5.278,3.051l-.627.357v2.46c0,1.686,1.181,2.375,2.633,1.538l7.542-4.355c1.452-.849,3.826-2.214,5.278-3.051l7.542-4.355C816.446,1962.372,816.446,1961.006,814.994,1960.169Z" transform="translate(-782.453 -1924.085)"/><path class="b" d="M25.547,1958.644v-6.238l-6.914-4c-1.452-.836-2.633-.147-2.633,1.526v23.5c0,1.686,1.181,2.375,2.633,1.538l6.914-4v-12.328Z" transform="translate(-16 -1924.085)"/><path class="a" d="M7910.125,898.912l-3.334-10.974L7912.548,870h.579l17.507,46.726h-15.121l-2.337-7.7H7900l3.262-10.113Z" transform="translate(-7803.004 -859.297)"/><g transform="translate(188.885 0)"><path class="a" d="M15394.295,882.118l-5.131,16.793h10.224l5.4,17.815-2.339-7.7h-16.362l-2.349,7.7H15369L15386.595,870h4.022Z" transform="translate(-15369.001 -859.297)"/><path class="c" d="M17001.4,37.216l-4.047,1.279-.539-1.71,9.619-3.063a1.644,1.644,0,0,0,.838-2.141l-2.105-6.57a1.612,1.612,0,0,0-1.906-1.255l-9.625,3.063-.551-1.722,4.035-1.292L16989.627,0H16978l8.65,27.152,4.035-1.292.541,1.722-2.916.935a1.626,1.626,0,0,0-.838,2.128l.723,2.264-3.945,1.255-.566-1.772a2.742,2.742,0,0,0-.271.062,2.963,2.963,0,0,0,1.8,5.647c.088-.037.174-.074.256-.111l-.561-1.772,3.947-1.255.713,2.251a1.66,1.66,0,0,0,1.932,1.267l2.914-.935.555,1.722-4.049,1.279,6.869,21.542,11.535-.012Z" transform="translate(-16958.207)"/></g><path class="a" d="M814.994,1960.169l-7.542-4.355c-1.452-.837-3.826-2.214-5.278-3.051l-7.542-4.355c-1.452-.836-2.633-.147-2.633,1.526v2.473l.627.357c1.452.837,3.826,2.214,5.278,3.051l7.542,4.355c1.452.837,1.452,2.2,0,3.039l-7.542,4.355c-1.452.837-3.826,2.2-5.278,3.051l-.627.357v2.46c0,1.686,1.181,2.375,2.633,1.538l7.542-4.355c1.452-.849,3.826-2.214,5.278-3.051l7.542-4.355C816.446,1962.372,816.446,1961.006,814.994,1960.169Z" transform="translate(-782.453 -1924.085)"/><path class="a" d="M25.547,1958.644v-6.238l-6.914-4c-1.452-.836-2.633-.147-2.633,1.526v23.5c0,1.686,1.181,2.375,2.633,1.538l6.914-4h0v-12.328Z" transform="translate(-16 -1924.085)"/><path class="c" d="M6636.424,922.521a4.033,4.033,0,0,0,1.415-1.218l6.311-6.681c5.254-6,2.757-1.55,5.512-9.584L6661.251,870h-13.5c-.614,1.895-1.229,3.691-1.5,4.478-.394,1.12-.837,2.252-1.133,3.383l-6.777,20.472c-.419,1.181-.7,2.288-1.083,3.42s-.775,2.239-1.156,3.359c-.751,2.141-.333,1.476-.32,4l.517,11.011C6636.412,921.2,6636.325,921.709,6636.424,922.521Zm3.839-5.733-2.941-1.009c.259-.8-.479-7.013-.331-8.919.037-.48.146-.517.2-1.095.664.369.308.111,1.059,1.87a13.128,13.128,0,0,1,.91,2.288l2.719-2.165a29.735,29.735,0,0,0,1.033,3.26c1.588-.246,2.572-1.427,3.974-1.735-.123,1.292-2.189,2.94-3.062,3.851-.616.64-1.145,1.206-1.76,1.845C6641.381,915.668,6640.987,916.148,6640.263,916.788Z" transform="translate(-6554.217 -859.297)"/><path class="c" d="M12823.309,2662l17.95,25.294h-15.118L12816,2672.937l3.753-5.622Z" transform="translate(-12658.525 -2629.25)"/><path d="M10907.562,843.412,10891,820h14.912l8.942,12.4Z" transform="translate(-10757.208 -809.912)"/><path class="d" d="M10978.821,867.956H10966l30.99-46.824.751-1.132h12.512Z" transform="translate(-10831.284 -809.912)"/></g></svg>