<svg xmlns="http://www.w3.org/2000/svg" viewBox="7567.754 1476 27.471 28"><defs><style>.a{fill:#9d9d9d;}.b{fill:#fff;}</style></defs><g transform="translate(6794 682.001)"><rect class="a" width="27.471" height="27.999" transform="translate(773.754 794)"/><g transform="translate(779.198 798.912)"><rect class="b" width="3.111" height="1.037" transform="translate(5.185 3.111)"/><rect class="b" width="6.222" height="1.037" transform="translate(5.185 5.185)"/><rect class="b" width="6.222" height="1.037" transform="translate(5.185 7.258)"/><path class="b" d="M15.028,7.258h-.518V9.332H13.472V3.111L10.362,0H3.1V9.332H2.066V7.258H1.547A1.556,1.556,0,0,0-.008,8.814v6.221a1.556,1.556,0,0,0,1.555,1.555h13.48a1.556,1.556,0,0,0,1.555-1.555V8.814A1.556,1.556,0,0,0,15.028,7.258ZM4.14,1.037H9.324V4.148h3.111V9.332H4.14ZM1.029,11.406V10.369H3.1v1.037Zm13.48,3.111H2.066V13.48H14.509Z" transform="translate(0.008)"/></g></g></svg>