<svg xmlns="http://www.w3.org/2000/svg"><defs><style>.a,.d{fill:#008cba}.b{fill:#c0e276}.c,.d{fill-rule:evenodd}</style><style>.a{fill:#9d9d9d}.b{fill:#fff}</style></defs><symbol id="logo" viewBox="2391.991 50.3 240.001 70.766"><path class="a" d="M2420.017 80.803a17.14 17.14 0 0 1 15.453-8.858c6.791 0 12.2 3.1 14.689 7.05l10.163-5.832a21.871 21.871 0 0 0-19.772-12.16c-12.045 0-20.853 7.837-22.969 18.393z"/><path d="M2440.845 111.617c-11.318 0-20.25-5.807-24.692-14.382l-3.149 1.821-6.274 3.617c4.86 10.863 15.871 18.393 29.773 18.393 16.83 0 29.625-11.159 29.625-29.539v-.16c-1.452 11.306-10.827 20.25-25.283 20.25zm-26.881-34.313a26.3 26.3 0 0 1 16.35-18.331 31.156 31.156 0 0 0-22.034 15.046l4.725 2.731z"/><path class="a" d="M2438.101 107.631c.9.086 1.808.135 2.743.135 12.82 0 20.583-7.923 21.42-17.8h-26.279v8.427h16.068c-2.018 5.412-6.768 8.844-13.952 9.238z"/><path class="b" d="M2424.532 86.384l-7.542-4.355c-1.452-.837-3.826-2.214-5.278-3.051l-7.542-4.355c-1.452-.836-2.633-.147-2.633 1.526v2.461l.627.369c1.452.837 3.826 2.214 5.278 3.051l7.542 4.355c1.452.837 1.452 2.2 0 3.039l-7.542 4.355c-1.452.837-3.826 2.2-5.278 3.051l-.627.357v2.46c0 1.686 1.181 2.375 2.633 1.538l7.542-4.355c1.452-.849 3.826-2.214 5.278-3.051l7.542-4.355c1.452-.837 1.452-2.203 0-3.04z"/><path class="b" d="M2401.538 84.859v-6.238l-6.914-4c-1.452-.836-2.633-.147-2.633 1.526v23.5c0 1.686 1.181 2.375 2.633 1.538l6.914-4V84.857z"/><path class="a" d="M2499.112 89.915l-3.334-10.974 5.757-17.938h.579l17.507 46.726H2504.5l-2.337-7.7h-13.176l3.262-10.113zM2606.17 73.121l-5.131 16.793h10.224l5.4 17.815-2.339-7.7h-16.362l-2.349 7.7h-14.738l17.595-46.726h4.022z"/><path class="c" d="M2624.069 87.516l-4.047 1.279-.539-1.71 9.619-3.063a1.644 1.644 0 0 0 .838-2.141l-2.105-6.57a1.612 1.612 0 0 0-1.906-1.255l-9.625 3.063-.551-1.722 4.035-1.292-7.492-23.805h-11.627l8.65 27.152 4.035-1.292.541 1.722-2.916.935a1.626 1.626 0 0 0-.838 2.128l.723 2.264-3.945 1.255-.566-1.772a2.742 2.742 0 0 0-.271.062 2.963 2.963 0 0 0 1.8 5.647c.088-.037.174-.074.256-.111l-.561-1.772 3.947-1.255.713 2.251a1.66 1.66 0 0 0 1.932 1.267l2.914-.935.555 1.722-4.049 1.279 6.869 21.542 11.535-.012z"/><path class="a" d="M2424.532 86.384l-7.542-4.355c-1.452-.837-3.826-2.214-5.278-3.051l-7.542-4.355c-1.452-.836-2.633-.147-2.633 1.526v2.473l.627.357c1.452.837 3.826 2.214 5.278 3.051l7.542 4.355c1.452.837 1.452 2.2 0 3.039l-7.542 4.355c-1.452.837-3.826 2.2-5.278 3.051l-.627.357v2.46c0 1.686 1.181 2.375 2.633 1.538l7.542-4.355c1.452-.849 3.826-2.214 5.278-3.051l7.542-4.355c1.452-.837 1.452-2.203 0-3.04z"/><path class="a" d="M2401.538 84.859v-6.238l-6.914-4c-1.452-.836-2.633-.147-2.633 1.526v23.5c0 1.686 1.181 2.375 2.633 1.538l6.914-4V84.857z"/><path class="c" d="M2474.198 113.524a4.033 4.033 0 0 0 1.415-1.218l6.311-6.681c5.254-6 2.757-1.55 5.512-9.584l11.589-35.038h-13.5a269.094 269.094 0 0 1-1.5 4.478c-.394 1.12-.837 2.252-1.133 3.383l-6.777 20.472c-.419 1.181-.7 2.288-1.083 3.42s-.775 2.239-1.156 3.359c-.751 2.141-.333 1.476-.32 4l.517 11.011c.113 1.077.026 1.586.125 2.398zm3.839-5.733l-2.941-1.009c.259-.8-.479-7.013-.331-8.919.037-.48.146-.517.2-1.095.664.369.308.111 1.059 1.87a13.128 13.128 0 0 1 .91 2.288l2.719-2.165a29.735 29.735 0 0 0 1.033 3.26c1.588-.246 2.572-1.427 3.974-1.735-.123 1.292-2.189 2.94-3.062 3.851-.616.64-1.145 1.206-1.76 1.845-.683.689-1.077 1.169-1.801 1.809zM2556.775 83.05l17.95 25.294h-15.118l-10.141-14.357 3.753-5.622z"/><path d="M2542.345 83.8l-16.562-23.412h14.912l8.942 12.4z"/><path class="d" d="M2539.528 108.344h-12.821l30.99-46.824.751-1.132h12.512z"/></symbol><symbol id="print" viewBox="7567.754 1476 27.471 28"><path class="a" d="M7567.754 1476.001h27.471V1504h-27.471z"/><path class="b" d="M7578.383 1484.024h3.111v1.037h-3.111zM7578.383 1486.098h6.222v1.037h-6.222zM7578.383 1488.171h6.222v1.037h-6.222z"/><path class="b" d="M7588.234 1488.171h-.518v2.074h-1.038v-6.221l-3.11-3.111h-7.262v9.332h-1.034v-2.074h-.519a1.556 1.556 0 0 0-1.555 1.556v6.221a1.556 1.556 0 0 0 1.555 1.555h13.48a1.556 1.556 0 0 0 1.555-1.555v-6.221a1.556 1.556 0 0 0-1.554-1.556zm-10.888-6.221h5.184v3.111h3.111v5.184h-8.295zm-3.111 10.369v-1.037h2.071v1.037zm13.48 3.111h-12.443v-1.037h12.443z"/></symbol></svg>